<?xml version="1.0" standalone="no"?>
<!DOCTYPE svg PUBLIC "-//W3C//DTD SVG 20010904//EN"
 "http://www.w3.org/TR/2001/REC-SVG-20010904/DTD/svg10.dtd">
<svg version="1.0" xmlns="http://www.w3.org/2000/svg"
 width="805.000000pt" height="530.000000pt" viewBox="0 0 805.000000 530.000000"
 preserveAspectRatio="xMidYMid meet">

<g transform="translate(0.000000,530.000000) scale(0.100000,-0.100000)"
fill="#000000" stroke="none">
<path d="M4510 3180 l0 -590 245 0 245 0 0 590 0 590 -245 0 -245 0 0 -590z
m410 470 l0 -30 -175 0 -175 0 0 30 0 30 175 0 175 0 0 -30z m0 -80 l0 -30
-175 0 -175 0 0 30 0 30 175 0 175 0 0 -30z m0 -80 l0 -30 -175 0 -175 0 0 30
0 30 175 0 175 0 0 -30z m0 -75 l0 -25 -175 0 -175 0 0 25 0 25 175 0 175 0 0
-25z m-43 -87 c-3 -7 -5 -2 -5 12 0 14 2 19 5 13 2 -7 2 -19 0 -25z m-254 -3
c1 -5 -6 -11 -15 -13 -11 -2 -18 3 -18 13 0 17 30 18 33 0z m60 0 c1 -5 -6
-11 -15 -13 -11 -2 -18 3 -18 13 0 17 30 18 33 0z m173 -7 c-1 -17 5 -23 19
-23 14 0 20 6 19 23 0 12 3 22 8 22 5 0 8 -12 6 -27 -2 -19 -9 -29 -24 -31
-25 -4 -49 22 -40 43 8 21 13 19 12 -7z m94 -428 c0 -6 -75 -10 -205 -10 -130
0 -205 4 -205 10 0 6 75 10 205 10 130 0 205 -4 205 -10z m0 -40 c0 -6 -75
-10 -205 -10 -130 0 -205 4 -205 10 0 6 75 10 205 10 130 0 205 -4 205 -10z
m0 -40 c0 -6 -75 -10 -205 -10 -130 0 -205 4 -205 10 0 6 75 10 205 10 130 0
205 -4 205 -10z m0 -40 c0 -6 -75 -10 -205 -10 -130 0 -205 4 -205 10 0 6 75
10 205 10 130 0 205 -4 205 -10z m0 -40 c0 -6 -75 -10 -205 -10 -130 0 -205 4
-205 10 0 6 75 10 205 10 130 0 205 -4 205 -10z m0 -40 c0 -6 -75 -10 -205
-10 -130 0 -205 4 -205 10 0 6 75 10 205 10 130 0 205 -4 205 -10z m0 -40 c0
-6 -75 -10 -205 -10 -130 0 -205 4 -205 10 0 6 75 10 205 10 130 0 205 -4 205
-10z"/>
<path d="M3052 3560 c-11 -11 -24 -35 -27 -52 -3 -18 -5 -185 -3 -371 l3 -339
28 -24 c28 -24 29 -24 268 -24 l239 0 0 -35 0 -35 -272 -2 c-247 -3 -273 -5
-276 -20 -2 -9 6 -26 17 -37 21 -21 28 -21 644 -21 592 0 625 1 640 18 10 10
17 28 17 40 l0 22 -255 0 -255 0 0 35 0 35 236 0 236 0 29 30 30 29 -3 366 -3
367 -24 19 c-22 18 -48 19 -635 19 -598 0 -613 0 -634 -20z m1226 -38 c9 -7
12 -85 10 -358 l-3 -349 -600 0 -600 0 -3 344 c-2 245 1 348 9 357 9 12 113
14 593 14 319 0 587 -4 594 -8z"/>
<path d="M1530 2125 l0 -45 85 0 85 0 0 -82 c0 -71 -3 -85 -22 -106 l-23 -24
23 -18 c21 -17 22 -26 22 -144 l0 -126 45 0 45 0 0 122 c0 118 1 123 26 149
l26 27 -26 17 c-25 16 -26 22 -26 101 l0 83 88 3 87 3 3 43 3 42 -220 0 -221
0 0 -45z"/>
<path d="M2160 2047 c0 -119 -1 -124 -25 -147 l-25 -24 25 -26 c24 -25 25 -31
25 -148 l0 -122 180 0 180 0 0 45 0 45 -135 0 -135 0 0 80 0 80 105 0 105 0 0
45 0 45 -105 0 -105 0 0 80 0 80 135 0 135 0 0 45 0 45 -180 0 -180 0 0 -123z"/>
<path d="M2782 2122 l-52 -47 0 -81 c0 -77 -1 -83 -26 -99 l-26 -17 26 -27
c23 -24 26 -35 26 -103 l0 -76 54 -46 53 -46 111 0 110 0 57 51 c55 51 56 52
53 103 l-3 51 -45 0 c-45 0 -45 0 -48 -37 -5 -58 -47 -88 -124 -88 -50 0 -67
5 -95 26 l-33 25 0 164 0 164 29 20 c23 16 44 21 99 21 92 0 122 -21 122 -86
l0 -44 49 0 48 0 0 60 0 61 -55 49 -56 50 -110 0 -111 -1 -53 -47z"/>
<path d="M3380 2043 c0 -118 -2 -128 -22 -151 l-23 -24 23 -18 c21 -17 22 -26
22 -144 l0 -126 45 0 45 0 0 125 0 125 125 0 125 0 0 -125 0 -125 45 0 45 0 0
129 c0 122 1 129 23 144 l22 15 -22 24 c-21 23 -23 33 -23 151 l0 127 -45 0
-45 0 0 -125 0 -125 -125 0 -125 0 0 125 0 125 -45 0 -45 0 0 -127z"/>
<path d="M4107 2119 l-57 -51 0 -63 0 -63 57 -51 57 -51 75 0 c64 0 79 -3 108
-26 27 -20 33 -32 33 -63 0 -56 -38 -81 -127 -81 -59 0 -70 3 -95 27 -20 19
-28 37 -28 60 0 34 0 34 -42 31 l-43 -3 -3 -51 c-3 -49 -2 -51 52 -102 l55
-52 106 0 106 0 55 47 54 47 0 77 0 77 -54 46 -54 46 -79 0 c-74 0 -81 2 -106
28 -34 36 -36 80 -4 110 19 18 35 22 89 22 82 0 118 -23 118 -76 0 -34 0 -34
45 -34 l45 0 0 53 c0 50 -2 53 -54 100 l-55 47 -98 0 -99 0 -57 -51z"/>
<path d="M4710 2047 c0 -119 -1 -124 -25 -147 l-25 -24 25 -26 c24 -25 25 -31
25 -148 l0 -122 45 0 45 0 0 125 0 125 120 0 120 0 0 -125 0 -125 45 0 45 0 0
122 c0 118 1 123 26 149 l26 27 -26 17 c-26 17 -26 18 -26 146 l0 129 -45 0
-45 0 0 -125 0 -125 -120 0 -120 0 0 125 0 125 -45 0 -45 0 0 -123z"/>
<path d="M5442 2122 l-52 -47 0 -79 c0 -72 -2 -80 -26 -98 l-25 -21 25 -26
c23 -24 26 -35 26 -102 l0 -75 54 -47 55 -47 110 0 109 0 56 51 56 51 0 78 c0
70 3 81 22 94 l22 16 -22 23 c-19 20 -22 35 -22 99 l0 76 -57 51 -57 51 -110
0 -111 -1 -53 -47z m270 -69 l28 -27 0 -150 c0 -149 0 -150 -27 -178 -25 -26
-33 -28 -100 -28 -60 0 -79 4 -103 22 l-30 22 0 160 0 160 28 23 c22 19 39 22
101 23 68 0 78 -3 103 -27z"/>
<path d="M6090 2043 c0 -118 -2 -128 -22 -151 l-23 -24 23 -15 c21 -15 22 -22
22 -144 l0 -129 45 0 45 0 0 125 0 125 103 0 103 0 47 54 c45 52 47 57 47 116
0 59 -2 64 -46 116 l-46 54 -149 0 -149 0 0 -127z m278 7 c12 -16 22 -39 22
-50 0 -11 -10 -34 -22 -50 -21 -29 -24 -30 -105 -30 l-83 0 0 80 0 80 83 0
c81 0 84 -1 105 -30z"/>
</g>
</svg>
